<?xml version="1.0" encoding="utf-8"?>
<svg focusable="false" height="90" shape-rendering="geometricPrecision" version="1.1" viewBox="0 0 500 90" width="500" xmlns="http://www.w3.org/2000/svg">
	<title>Project Logo</title>
	<path
		fill="#333333"
		d="m 458.31031,63.887996 q -6.39333,-7.032667 -6.39333,-17.81 0,-10.777334 6.39333,-17.718667 6.39334,-7.032667 16.988,-7.032667 10.59467,0 16.988,7.032667 6.39334,6.941333 6.39334,17.718667 0,10.777333 -6.39334,17.81 -6.39333,6.941334 -16.988,6.941334 -10.59466,0 -16.988,-6.941334 z m 7.58067,-29.592001 q -3.37933,4.292667 -3.37933,11.782001 0,7.489333 3.37933,11.873333 3.37933,4.292667 9.40733,4.292667 6.028,0 9.40734,-4.292667 3.37933,-4.384 3.37933,-11.873333 0,-7.489334 -3.37933,-11.782001 -3.37934,-4.384 -9.40734,-4.384 -6.028,0 -9.40733,4.384 z m -51.51563,-0.274 q -3.37933,4.110001 -3.37933,11.599334 0,7.489334 3.37933,11.599334 3.37934,4.11 8.58534,4.11 6.75866,0 10.50333,-4.292667 V 34.204662 q -3.74467,-4.292667 -10.50333,-4.292667 -5.206,0 -8.58534,4.11 z m -7.85466,29.226668 q -6.11934,-6.667334 -6.11934,-17.627334 0,-10.96 6.11934,-17.627334 6.21066,-6.667333 15.25266,-6.667333 7.124,0 11.69067,3.927333 v -2.831333 h 10.412 v 43.018001 q 0,11.964667 -5.48,17.262 -5.38867,5.297334 -17.262,5.297334 -9.40733,0 -16.166,-3.562 l 0.63933,-9.498667 q 6.75867,4.658 15.618,4.658 12.23867,0 12.23867,-11.599334 v -2.009333 q -4.56667,3.927333 -11.69067,3.927333 -9.042,0 -15.25266,-6.667333 z m -51.77678,0.639333 q -6.39334,-7.032667 -6.39334,-17.81 0,-10.777334 6.39334,-17.718667 6.39333,-7.032667 16.988,-7.032667 10.59466,0 16.988,7.032667 6.39333,6.941333 6.39333,17.718667 0,10.777333 -6.39333,17.81 -6.39334,6.941334 -16.988,6.941334 -10.59467,0 -16.988,-6.941334 z m 7.58066,-29.592001 q -3.37933,4.292667 -3.37933,11.782001 0,7.489333 3.37933,11.873333 3.37934,4.292667 9.40734,4.292667 6.028,0 9.40733,-4.292667 3.37933,-4.384 3.37933,-11.873333 0,-7.489334 -3.37933,-11.782001 -3.37933,-4.384 -9.40733,-4.384 -6.028,0 -9.40734,4.384 z M 301.55859,69.73333 V 5.7999947 h 10.77734 V 60.41733 h 32.606 v 9.316 z M 242.98977,28.998662 v -6.576 h 8.494 V 8.2659947 h 7.672 V 22.422662 h 14.33933 v 6.576 h -14.33933 v 22.650667 q 0,7.489334 1.918,9.955334 1.918,2.466 6.75867,2.466 2.28333,0 4.56666,-0.548 l 0.91334,6.758667 q -3.19667,0.548 -6.21067,0.548 -15.618,0 -15.618,-16.166001 V 28.998662 Z m -29.67341,3.927333 q -4.658,4.749334 -4.658,13.152001 0,8.402667 4.658,13.243333 4.658,4.749334 12.69534,4.749334 7.76333,0 12.69533,-3.379333 l 0.73067,7.306666 q -5.38867,2.831334 -13.426,2.831334 -11.32534,0 -18.26667,-6.758667 -6.94133,-6.758667 -6.94133,-17.992667 0,-11.142667 6.85,-17.901334 6.94133,-6.85 17.71867,-6.85 8.31133,0 13.60866,2.648666 l -0.73066,7.306667 q -5.02334,-3.196666 -12.604,-3.196666 -7.67201,0 -12.33001,4.840666 z m -17.53819,16.257334 h -34.798 q 0.45666,6.758667 4.658,10.868667 4.29266,4.018667 11.234,4.018667 8.85933,0 14.33933,-4.475334 l 0.822,7.398001 q -6.11933,3.836 -15.344,3.836 -11.234,0 -17.44467,-6.941334 -6.21066,-6.941333 -6.21066,-17.901334 0,-11.142667 5.84533,-17.901333 5.84533,-6.758667 15.52667,-6.758667 10.04666,0 15.70933,6.941333 5.754,6.85 5.754,18.084001 0,1.918 -0.0913,2.831333 z m -34.798,-6.576 h 26.94333 q -0.45667,-6.758667 -4.01867,-10.594667 -3.562,-3.927333 -9.49866,-3.927333 -5.93667,0 -9.49867,3.927333 -3.47067,3.927333 -3.92733,10.594667 z M 137.37687,72.19933 V 22.422662 h 7.672 v 49.320001 q 0,8.311334 -3.65333,12.238667 -3.65333,4.018667 -11.59933,4.018667 -3.014,0 -5.48,-0.730667 l 0.73066,-6.667333 q 1.918,0.639333 4.11,0.639333 4.29267,0 6.21067,-2.192 2.00933,-2.100667 2.00933,-6.85 z m 3.836,-59.458002 q -4.74933,0 -4.74933,-4.8406666 0,-4.8406668 4.74933,-4.8406668 4.84067,0 4.84067,4.8406668 0,4.8406666 -4.84067,4.8406666 z M 88.590537,63.887996 q -6.210667,-6.941333 -6.210667,-17.81 0,-10.868667 6.210667,-17.810001 6.210666,-6.941333 16.622663,-6.941333 10.412,0 16.62267,6.941333 6.21067,6.941334 6.21067,17.810001 0,10.868667 -6.21067,17.81 -6.21067,6.941334 -16.62267,6.941334 -10.411997,0 -16.622663,-6.941334 z M 94.16187,32.925995 q -3.927333,4.840667 -3.927333,13.152001 0,8.311333 3.927333,13.152 4.018667,4.840667 11.05133,4.840667 7.03267,0 10.96,-4.840667 4.01867,-4.840667 4.01867,-13.152 0,-8.311334 -4.01867,-13.152001 -3.92733,-4.840666 -10.96,-4.840666 -7.032663,0 -11.05133,4.840666 z m -13.446035,-10.96 -0.822,7.489334 q -2.466,-1.004667 -5.754,-1.004667 -9.681333,0 -13.152,8.585334 V 69.73333 h -7.672 V 22.422662 h 7.672 v 5.297333 q 4.932,-6.393333 13.974,-6.393333 3.288,0 5.754,0.639333 z M 39.172668,11.097328 q 6.484667,5.206 6.484667,14.613334 0,9.407333 -6.484667,14.704667 -6.484667,5.206 -17.353334,5.206 h -11.782 V 69.73333 H 2 V 5.7999947 h 19.819334 q 10.868667,0 17.353334,5.2973333 z m -5.754,24.294667 q 4.018666,-3.105333 4.018666,-9.681333 0,-6.576 -4.018666,-9.681334 -4.018667,-3.105333 -12.238667,-3.105333 H 10.037334 v 25.573334 h 11.142667 q 8.22,0 12.238667,-3.105334 z" />
</svg>
